<svg xmlns="http://www.w3.org/2000/svg" viewBox="0 0 233 46">
  <defs>
    <linearGradient id="p03x1rv66a" x1="50%" x2="89.112%" y1="39.01%" y2="53.005%">
      <stop offset="0%" stop-color="#00C0FF"></stop>
      <stop offset="99.951%" stop-color="#008CFF"></stop>
    </linearGradient>
    <linearGradient id="98g8xpgnob" x1="17.059%" x2="28.608%" y1="37.946%" y2="93.224%">
      <stop offset="0%" stop-color="#00C0FF"></stop>
      <stop offset="100%" stop-color="#008CFF"></stop>
    </linearGradient>
    <radialGradient id="iq0uj45s6c" cx="0%" cy="0%" r="159.334%" fx="0%" fy="0%" gradientTransform="translate(0.000000,0.000000),scale(1.000000,0.910413),rotate(55.132836),translate(-0.000000,-0.000000)">
      <stop offset="0%" stop-color="#00C0FF"></stop>
      <stop offset="54.318%" stop-color="#00BDFF"></stop>
      <stop offset="100%" stop-color="#008CFF"></stop>
    </radialGradient>
  </defs>
  <g fill="none" fill-rule="evenodd">
    <g>
      <path fill="#935227" d="M76,15.2c3.2,0,4.8,1.5,5.5,2.8c0.1,0.1,0.1,0.2,0.1,0.3c0,0,0,0.1,0,0.1c0,0.1,0,0.2-0.1,0.2v0l-2.4,1.2c0,0-0.1,0-0.1,0c-0.1,0-0.2-0.1-0.2-0.1c-0.4-0.8-1.2-1.7-2.9-1.7c-2.7,0-3.2,2.3-3.2,3v4.7c0,0.7,0.4,3,3.2,3c1.7,0,2.5-0.9,2.8-1.7l0,0c0-0.1,0.1-0.1,0.2-0.1c0,0,0.1,0,0.1,0l0,0l2.4,1.2c0,0,0,0,0,0l0,0c0.1,0,0.1,0.1,0.1,0.2c0,0,0,0.1,0,0.1c0,0.1-0.1,0.2-0.1,0.3c-0.8,1.3-2.3,2.8-5.5,2.8h0c-3.2,0-4.8-1.5-5.5-2.8c-0.8-1.4-0.8-2.8-0.8-3.1V21c0-0.4,0.1-1.8,0.8-3.1C71.2,16.7,72.7,15.2,76,15.2L76,15.2C75.9,15.2,76,15.2,76,15.2z M89,15.2c3.2,0,4.8,1.5,5.5,2.8c0.8,1.4,0.8,2.8,0.8,3.1v4.4c0,0.3,0,1.7-0.8,3.1c-0.7,1.3-2.3,2.8-5.5,2.8h0c-3.2,0-4.8-1.5-5.5-2.8c-0.8-1.4-0.8-2.8-0.8-3.1V21c0-0.4,0.1-1.8,0.8-3.1C84.2,16.7,85.7,15.2,89,15.2L89,15.2L89,15.2L89,15.2z M109.9,15.5C109.9,15.5,109.9,15.5,109.9,15.5c0.1,0,0.2,0.1,0.2,0.2v15.2l0,0c0,0.1-0.1,0.2-0.2,0.2h-2.5c0,0,0,0,0,0c-0.1,0-0.2-0.1-0.2-0.2h0v-1.1c-0.8,0.8-2.1,1.6-4,1.6h0c-2.9,0-4.3-1.5-5-2.8c-0.7-1.4-0.7-2.8-0.7-3.1v-9.8c0-0.1,0.1-0.2,0.2-0.2l0,0l2.7,0v0c0.1,0,0.2,0.1,0.2,0.2h0v9.9c0,0.7,0.4,3,3.2,3c2.7,0,3.2-2.3,3.2-3v-4.6h0v-5.4l0,0c0-0.1,0.1-0.2,0.2-0.2v0H109.9z M89,18c-2.7,0-3.2,2.3-3.2,3v4.7c0,0.7,0.4,3,3.2,3c2.7,0,3.2-2.3,3.2-3v-4.7C92.1,20.3,91.7,18,89,18z M185.8,15.2c2.9,0,4.3,1.5,5,2.8c0.7,1.4,0.7,2.8,0.7,3.1v4.5c0,0.4-0.1,1.8-0.7,3.1c-0.7,1.3-2.1,2.8-5,2.8h0c-1.8,0-3-0.7-3.8-1.4v7.4l0,0c0,0,0,0,0,0v0c0,0,0,0,0,0c0,0.1-0.1,0.2-0.2,0.2v0H179c-0.1,0-0.2-0.1-0.2-0.2l0,0V15.7c0,0,0,0,0,0c0-0.1,0.1-0.2,0.2-0.2l0,0c0,0,0,0,0,0h2.5l0,0l0,0c0.1,0,0.2,0.1,0.2,0.2c0,0,0,0,0,0h0v1.1C182.6,16,183.9,15.2,185.8,15.2L185.8,15.2C185.8,15.2,185.8,15.2,185.8,15.2zM215.3,15.5c0.5,0,0.7,0.2,0.8,0.6c0.6,2.3,1.1,4.5,1.7,6.8l1.3,5.3h0.1l3.9-12c0.1-0.3,0.3-0.7,0.9-0.7h2.1c0.4,0,0.5,0.2,0.5,0.5c0,0.1,0,0.1,0,0.2l-6.8,20.6c-0.1,0.4-0.4,0.7-1.1,0.7h-1.8c-0.5,0-0.8-0.4-0.5-0.9l1.8-5.5h-0.8c-0.5,0-0.7-0.2-0.9-0.7l-4-14.2c0-0.1,0-0.1,0-0.2c0-0.3,0.1-0.5,0.5-0.5L215.3,15.5z M200.4,16.3c1-0.4,4.8-1.8,7.7-0.7c2.8,1.2,3.4,4.1,3.4,5.3c0,0,0,0.1,0,0.1v1.6h0v8.2c0,0.1-0.1,0.2-0.2,0.2l0,0v0h-2.4c0,0,0,0,0,0c-0.1,0-0.2-0.1-0.2-0.2l0,0l0,0v-0.7c-0.8,0.6-2,1.2-3.7,1.3h0c-2.9,0-4.3-1.4-5-2.6c-0.7-1.3-0.7-2.7-0.7-2.9c0-0.3,0-1.6,0.7-2.9c0.7-1.2,2.1-2.6,5-2.6h0c1.6,0,2.8,0.6,3.6,1.2v-0.6c0-0.5-0.1-1.9-1.6-2.6c-1.7-0.8-4.6,0.2-5.6,0.7c0,0-0.1,0-0.1,0c-0.1,0-0.2-0.1-0.2-0.1c0,0,0,0,0,0l-0.8-2.2c0,0,0,0,0,0c0,0,0-0.1,0-0.1C200.2,16.4,200.3,16.3,200.4,16.3L200.4,16.3z M196.7,8.5c0.2,0,0.4,0.1,0.4,0.3v21.9c0,0.2-0.1,0.3-0.4,0.3H194c-0.2,0-0.3-0.1-0.3-0.4V8.9c0-0.2,0.1-0.4,0.3-0.4L196.7,8.5z M205.4,22.8c-2.6,0-3.1,2.2-3.1,2.8v0.3c0,0.6,0.4,2.8,3.1,2.8c2.6,0,3.1-2.2,3.1-2.8v-0.3C208.5,25,208.1,22.8,205.4,22.8z M185.1,18c-2.7,0-3.2,2.3-3.2,3v4.7c0,0.7,0.4,3,3.2,3c2.7,0,3.2-2.3,3.2-3V21C188.3,20.3,187.9,18,185.1,18z M233,46H0"></path>
      <path fill="#F7552F" d="M122.1,25.6c0,0.7-0.4,3-3.2,3c-2.7,0-3.2-2.3-3.2-3V21c0-0.7,0.4-3,3.2-3c2.7,0,3.2,2.3,3.2,3C122.1,21,122.1,25.6,122.1,25.6z M119.6,15.2L119.6,15.2L119.6,15.2L119.6,15.2c-1.9,0-3.2,0.8-4,1.6v-1.1h0c0,0,0,0,0,0c0-0.1-0.1-0.2-0.2-0.2l0,0c0,0,0,0,0,0h-2.5c0,0,0,0,0,0l0,0c-0.1,0-0.2,0.1-0.2,0.2c0,0,0,0,0,0h0v21.6l0,0c0,0.1,0.1,0.2,0.2,0.2h2.8v0c0.1,0,0.2-0.1,0.2-0.2c0,0,0,0,0,0v0c0,0,0,0,0,0s0,0,0,0V30c0.8,0.7,2,1.4,3.8,1.4h0c2.9,0,4.3-1.5,5-2.8c0.7-1.4,0.7-2.8,0.7-3.1v-4.4c0-0.3,0-1.7-0.7-3.1C123.9,16.7,122.5,15.2,119.6,15.2L119.6,15.2z"></path>
      <path fill="#FFC400" d="M136.3,25.9c0,0.6-0.4,2.8-3.1,2.8c-2.7,0-3.1-2.2-3.1-2.8v-0.3c0-0.6,0.4-2.8,3.1-2.8c2.6,0,3.1,2.2,3.1,2.8V25.9z M135.8,15.6c-2.9-1.2-6.7,0.2-7.7,0.7v0c-0.1,0-0.2,0.1-0.2,0.2c0,0,0,0.1,0,0.1c0,0,0,0,0,0l0.8,2.2c0,0,0,0,0,0c0,0.1,0.1,0.1,0.2,0.1c0,0,0.1,0,0.1,0l0,0c1.1-0.5,3.9-1.5,5.6-0.7c1.7,0.8,1.5,2.6,1.6,2.8v0.4c-0.8-0.6-2-1.2-3.6-1.2h0c-2.9,0-4.3,1.4-5,2.6c-0.7,1.3-0.7,2.7-0.7,2.9v0c0,0.3,0,1.6,0.7,2.9c0.7,1.2,2.1,2.6,5,2.6h0c1.7,0,2.9-0.6,3.7-1.3v0.7l0,0l0,0v0c0,0.1,0.1,0.2,0.2,0.2c0,0,0,0,0,0v0h2.4v0c0,0,0,0,0,0c0.1,0,0.2-0.1,0.2-0.2v-8.2h0V21c0,0,0-0.1,0-0.1C139.2,19.7,138.6,16.8,135.8,15.6L135.8,15.6z"></path>
      <path fill="#88CC2F" d="M148.7,15.2L148.7,15.2C148.7,15.2,148.7,15.2,148.7,15.2L148.7,15.2L148.7,15.2c-1.9,0-3.2,0.8-4,1.6v-1.1h0c0,0,0,0,0,0c0-0.1-0.1-0.2-0.2-0.2l0,0h-2.6v0c-0.1,0-0.2,0.1-0.2,0.2c0,0,0,0,0,0h0v15.2h0c0,0.1,0.1,0.2,0.2,0.2l0,0v0h2.7v0c0.1,0,0.2-0.1,0.2-0.2h0V20.8c0.1-0.8,0.6-2.8,3.2-2.8c2.7,0,3.2,2.3,3.2,3v9.9h0c0,0,0,0,0,0c0,0.1,0.1,0.2,0.2,0.2h2.8v0c0.1,0,0.2-0.1,0.2-0.2v-9.8c0-0.3,0-1.7-0.7-3.1C153,16.7,151.6,15.2,148.7,15.2"></path>
      <path fill="#31B4DD" d="M166,21c0,0.6-0.4,2.8-3.2,2.8c-2.7,0-3.2-2.2-3.2-2.8v-0.2c0-0.6,0.4-2.8,3.2-2.8c2.7,0,3.2,2.2,3.2,2.8L166,21L166,21z M170.8,15.3L170.8,15.3c-1.6,0-2.7,0.6-3.4,1.4c-0.9-0.8-2.3-1.4-4.5-1.5v0h0c-3.2,0-4.8,1.4-5.5,2.7c-0.8,1.3-0.8,2.7-0.8,3V21c0,0.3,0,1.7,0.8,3c0.3,0.6,0.8,1.1,1.6,1.6c-1.2,0.7-2.3,1.9-2.3,4.1v1.2c0,0.1,0.1,0.2,0.2,0.2v0h9.2c1.1,0,1.7,0.7,1.8,1.4c0.2,0.9-0.1,2-1.6,2.8l0,0c-0.1,0-0.2,0.1-0.2,0.2c0,0,0,0.1,0,0.1h0l1.2,2.2l0,0c0,0.1,0.1,0.1,0.2,0.1c0,0,0.1,0,0.1,0v0c2.8-1.4,3.4-4.1,2.9-6.1c-0.5-2.1-2.3-3.6-4.5-3.6l-6.3,0.1c0.4-1.9,2.6-1.9,2.9-1.9l0,0c0.1,0,0.2,0,0.3,0h0c3.2,0,4.8-1.4,5.5-2.7c0.8-1.3,0.8-2.7,0.8-3v-0.1c0-0.2,0-1.3-0.5-2.4c0.4-0.3,1.1-0.6,2-0.5c0,0,0,0,0,0c0.1,0,0.2-0.1,0.2-0.2v-2.2C171,15.4,170.9,15.3,170.8,15.3L170.8,15.3z"></path>
    </g>
    <g>
      <path fill="#00C0FF" d="M40.848 15.88c4.366-4.109 6.448-7.903 5.247-10.489-1.672-3.6-10.714-2.416-20.76 1.962-5.38 2.477-7.765 3.636-12.997 7.2C3.51 20.822-1.748 27.628.532 30.862c1.542 2.19 6.33 2.178 12.242.558l-.064-2.468c-3.122.43-5.598.064-6.412-1.335-1.271-2.185 1.258-6.16 6.115-10.175 4.807-3.738 10.03-6.556 15.595-8.62 6.021-2.116 11.044-2.38 12.321-.185.812 1.396.043 3.524-1.881 5.925l2.4 1.32z" transform="translate(-153.000000, -104.000000) translate(153.000000, 104.000000) translate(7.191358, 2.875000)"></path>
      <path fill="url(#p03x1rv66a)" d="M6.298 27.615L.532 30.861c1.542 2.19 6.33 2.178 12.242.558l-.064-2.468c-3.122.43-5.598.065-6.412-1.336" transform="translate(-153.000000, -104.000000) translate(153.000000, 104.000000) translate(7.191358, 2.875000)"></path>
      <path fill="url(#98g8xpgnob)" d="M46.095 5.391l-5.766 3.245c.812 1.396.043 3.524-1.881 5.925l2.4 1.32c4.366-4.11 6.448-7.904 5.247-10.49" transform="translate(-153.000000, -104.000000) translate(153.000000, 104.000000) translate(7.191358, 2.875000)"></path>
      <path fill="url(#iq0uj45s6c)" d="M11.961 0l.284 10.987c2.79-.91 6.608-1.574 9.013-1.72-2.93 1.411-5.907 3.205-8.92 5.287l.665 25.692 35.599-20.103L11.962 0z" transform="translate(-153.000000, -104.000000) translate(153.000000, 104.000000) translate(7.191358, 2.875000)"></path>
    </g>
    <path d="M0 0H233V46H0z" transform="translate(-153.000000, -104.000000) translate(153.000000, 104.000000)"></path>
  </g>
</svg>