<svg xmlns="http://www.w3.org/2000/svg" xmlns:xlink="http://www.w3.org/1999/xlink" viewBox="0 0 426.34 71.26"><defs><style>.cls-1{fill:none;}.cls-2{opacity:0.5;}.cls-3{fill:#484848;}.cls-4{clip-path:url(#clip-path);}.cls-5{fill:#c9c9c9;}.cls-6{fill:#fff;}.cls-7{fill:#adadad;}.cls-8{fill:#7a7a7a;}</style><clipPath id="clip-path"><path class="cls-1" d="M363.44,61.06a102,102,0,0,1-2.06-20.51,94.17,94.17,0,0,1,1.25-16,18.25,18.25,0,0,1,.67-2.6,10.4,10.4,0,0,1,6-6.32A27,27,0,0,1,373.88,14a78.46,78.46,0,0,1,18-2.22h.42A73.15,73.15,0,0,1,410,14.06a47.44,47.44,0,0,1,4.83,1.58s4.77,1.88,6,6.26a23,23,0,0,1,.59,2.49,107.54,107.54,0,0,1,1.28,16.16,102.61,102.61,0,0,1-2.07,20.58v0a9.4,9.4,0,0,1-7.18,7.27l-.34.07a108.52,108.52,0,0,1-21.09,2.07,108.55,108.55,0,0,1-21-2l-.47-.1a9.42,9.42,0,0,1-5.4-3.46A8.47,8.47,0,0,1,363.44,61.06Z"/></clipPath></defs><g id="레이어_2" data-name="레이어 2"><g id="Layer_1" data-name="Layer 1"><g id="가로형" class="cls-2"><path class="cls-3" d="M45,14.52S44.84,2.07,59.1,1.94H72.45c2.86,0,5.28,2,5.28,4.44s-2.42,4.51-5.28,4.51H66.26c-4.09,0-3.74,3-3.74,3v5.8H70c3,0,5.38,1.9,5.38,4.34s-2.1,4.42-5,4.42H62.52V57.92c0,4.15-3.58,7.84-8.57,7.84S45,62.4,45,58.19Z"/><path class="cls-3" d="M94.64,57.86c0,4.49-3.59,7.9-8.58,7.9s-9-3.41-9-7.56V31.63s0-11.72,14.48-11.72h11.47c6,0,6,4.6,6,4.6s0,4.42-5.62,4.42H98.38c-3.74,0-3.74,2.9-3.74,2.9Z"/><path class="cls-3" d="M179.83,19.59c15,0,15,12,15,12V44.07c0,2.51-2.44,4.35-5.39,4.35H172.91v5.35s.17,2.81,4,2.81l9.27,0c3,0,5.3,2,5.3,4.49s-2.41,4.68-5.3,4.68H169.88c-14.27,0-14.27-11.87-14.27-11.87V31.62s.11-11.9,14.38-12ZM177,29c-3.88,0-3.88,2.83-3.88,2.83v7.75h11V32s0-3-3.51-3Z"/><path class="cls-3" d="M232.32,56.81c3-.08,5.62,2.23,5.62,4.74s-2.65,4.21-5.62,4.21H209c-4.9,0-8.45-3-8.45-7.17V27.17c0-4.16,4-7.57,9-7.57h23.72c3,0,5.3,2,5.3,4.46s-2.32,4.35-5.3,4.35H220.57a1.93,1.93,0,0,0-2.17,1.85V54.88s-.15,1.92,2.18,1.92Z"/><path class="cls-3" d="M278.5,31.52V58.05c0,4.22-4.08,7.71-9.06,7.71H254.3c-14.9,0-14.9-12-14.9-12V47.81S240.33,37,254.3,37h6.4V31.58s0-2.8-3.51-2.8h-8.11c-3,0-5.85-1.74-5.85-4.25s2.73-4.91,5.69-4.91h15.3C278.5,19.68,278.5,31.52,278.5,31.52ZM253.59,56.66h7.09V46.08l-7.09,0c-3.87,0-3.5,5.28-3.5,5.28S249.68,56.66,253.59,56.66Z"/><path class="cls-3" d="M320.14,8s0-4-5.37-4H277.51c-5.37,0-5.37,3.93-5.37,3.93s0,3.89,5,3.89H285c3.35,0,3.35,2.55,3.35,2.55v24c0,4,3.21,7,7.67,7s8-3,8-6.65V14.24c.06-.55.48-2.39,3.33-2.39h7.79C320.14,11.85,320.14,8,320.14,8Z"/><path class="cls-3" d="M39.13,31.5V58c0,4.23-4.08,7.72-9.07,7.72H14.92C0,65.76,0,53.74,0,53.74V47.81S.94,37,14.92,37h6.39V31.56s0-2.8-3.51-2.8H9.69c-3,0-5.86-1.74-5.86-4.26s2.74-4.91,5.7-4.91H24.84C39.13,19.66,39.13,31.5,39.13,31.5ZM14.2,56.66h7.09V46.09H14.2c-4,0-3.5,5.28-3.5,5.28S10.29,56.66,14.2,56.66Z"/><path class="cls-3" d="M135,19.59c15,0,15,12,15,12V44.07c0,2.51-2.44,4.35-5.39,4.35H128v5.35s.16,2.81,4,2.81l9.26,0c3,0,5.31,2,5.31,4.49s-2.41,4.68-5.31,4.68H125c-14.28,0-14.28-11.87-14.28-11.87V31.62s.11-11.9,14.38-12ZM132.08,29c-3.89,0-3.89,2.83-3.89,2.83v7.75h11.05V32s0-3-3.5-3Z"/><path class="cls-3" d="M352.89,5.23c-3.5-2.35-8.44-1.12-11,2.74L327.73,26.89l-5.08-11c-.94-2-5-3-7.14-2S312,18,313,20l9.31,21.4c.73,1.56,2.38,2.85,5,3.48a9.24,9.24,0,0,0,9.4-3.91l17.87-24.52C357.16,12.62,356.4,7.58,352.89,5.23Z"/></g><g class="cls-2"><path class="cls-3" d="M408.57,1.19a2.18,2.18,0,0,1-1.27,3.05l-13.25,6a4.37,4.37,0,0,1-4.1-.09l-8.56-4.06a2.19,2.19,0,0,1-.57-3.23h0A2.17,2.17,0,0,1,384,2.63l6.59,5.3a2.33,2.33,0,0,0,2.06.49,3.19,3.19,0,0,0,.77-.34L405.47.31a2.21,2.21,0,0,1,3.1.88Z"/><g class="cls-4"><path class="cls-3" d="M425.49,25.7c-.93-6.95-2.53-10.91-11.58-13A99.64,99.64,0,0,0,395,10.31q-1.54-.06-3.09,0A99.83,99.83,0,0,0,373,12.74c-9,2-10.64,6-11.58,13A123.83,123.83,0,0,0,360.6,41a123.68,123.68,0,0,0,.84,15.31c.94,7,2.54,10.92,11.58,13,8.16,1.84,14.07,1.72,18.9,1.94q1.54.06,3.09,0c4.84-.22,10.75-.1,18.9-1.94,9-2.05,10.65-6,11.58-13A124.63,124.63,0,0,0,426.34,41,124.79,124.79,0,0,0,425.49,25.7Z"/><path class="cls-5" d="M402.61,31.5c-.06-2.4-.09-4.76,0-7.14a5.23,5.23,0,0,1,2.43-4.5,6,6,0,0,1,5.47-.27c2.8,1.25,6.41,3.17,6.41,3.17,2.07,1.12,3.82,2.07,6,3.49l0,0,.33.19a5.29,5.29,0,0,1,.06,8.88h0c-2.06,1.37-3.86,2.67-6,4a57.4,57.4,0,0,1-5.57,3.11,6.93,6.93,0,0,1-5.93.29A5.75,5.75,0,0,1,403,38.11S402.72,35.46,402.61,31.5Z"/><path class="cls-6" d="M406.26,50.63c-6.86,6.38-21.75,6.39-28.42,0A1.35,1.35,0,0,0,376,52.58c7.71,7.36,24.22,7.37,32.11,0a1.34,1.34,0,1,0-1.82-2Z"/><path class="cls-7" d="M400.77,40v-.06l0-.4-.92-10.12,0-.28c0-.22-.07-.44-.12-.65a5.23,5.23,0,0,0-4.16-3.88,5.1,5.1,0,0,0-.87-.07h-5.2a6.3,6.3,0,0,0-.75,0,5.24,5.24,0,0,0-4.28,3.89c0,.17-.07.35-.1.52l-.05.54-.92,10,0,.24s0,.11,0,.17v.2a5.24,5.24,0,0,0,5.2,5.22h7.06a4.8,4.8,0,0,0,.85-.08,5.21,5.21,0,0,0,4.36-5.14C400.78,40.12,400.77,40.05,400.77,40Z"/><path class="cls-8" d="M381.25,34.43a12.44,12.44,0,0,1-14.59,8.92c-6.87-1.18-11.82-10.89-8.4-16.87,2.93-5.12,9.31-8.91,16-6.86C381.3,21.79,383.27,27.69,381.25,34.43Z"/><circle cx="412.22" cy="31.23" r="4.4"/><circle cx="371.25" cy="31.23" r="4.4"/></g></g></g></g></svg>