<?xml version="1.0" encoding="UTF-8"?>
<svg xmlns="http://www.w3.org/2000/svg" xmlns:xlink="http://www.w3.org/1999/xlink" width="300px" height="88px" viewBox="0 0 297 88" version="1.1">
<g id="surface1">
<path style=" stroke:none;fill-rule:evenodd;fill:#777;fill-opacity:.7;" d="M 118.605469 19.980469 L 118.605469 31.894531 L 130.460938 31.894531 L 130.460938 85.640625 L 145.230469 85.640625 L 145.230469 31.894531 L 156.40625 31.894531 L 156.40625 19.980469 Z M 232.546875 45.347656 L 221.242188 45.347656 L 221.242188 20.066406 L 206.511719 20.066406 L 206.511719 85.730469 L 221.242188 85.730469 L 221.242188 57.261719 L 232.546875 57.261719 L 232.546875 85.730469 L 247.273438 85.730469 L 247.273438 20.066406 L 232.546875 20.066406 Z M 181.25 19.273438 L 178.683594 19.273438 C 165.382812 19.273438 160.0625 26.070312 160.0625 37.101562 L 160.0625 68.429688 C 160.0625 79.464844 165.382812 86.523438 178.96875 86.523438 L 181.535156 86.523438 C 195.027344 86.523438 199.777344 78.402344 199.777344 69.226562 L 199.777344 58.019531 L 185.335938 58.019531 L 185.335938 68.429688 C 185.335938 72.316406 184.003906 74.699219 180.203125 74.699219 C 176.5 74.699219 175.265625 72.492188 175.265625 68.34375 L 175.265625 37.011719 C 175.265625 32.863281 176.5 30.746094 180.203125 30.746094 C 184.097656 30.746094 185.335938 33.039062 185.335938 37.011719 L 185.335938 44.601562 L 199.777344 44.601562 L 199.777344 36.21875 C 199.777344 25.273438 194.644531 19.273438 181.25 19.273438 Z M 104.226562 63.226562 L 99.941406 35.777344 L 97.410156 35.777344 L 93.128906 63.226562 Z M 109.597656 19.980469 L 121.1875 85.640625 L 107.722656 85.640625 L 106.085938 75.140625 L 91.269531 75.140625 L 89.628906 85.640625 L 76.164062 85.640625 L 87.757812 19.980469 Z M 279.410156 63.226562 L 275.125 35.777344 L 272.59375 35.777344 L 268.308594 63.226562 Z M 284.777344 19.980469 L 296.371094 85.640625 L 282.90625 85.640625 L 281.269531 75.140625 L 266.453125 75.140625 L 264.8125 85.640625 L 251.347656 85.640625 L 262.9375 19.980469 Z M 284.777344 19.980469 "/>
<path style=" stroke:none;fill-rule:evenodd;fill:#777;fill-opacity:.7;" d="M 64.023438 1.527344 L 59.628906 64.417969 L 58.449219 64.476562 L 48.007812 19.984375 L 35.101562 19.984375 L 27.289062 66.085938 L 25.613281 66.171875 L 18.617188 19.984375 L 0.628906 19.984375 L 16.996094 88.742188 L 35.289062 87.554688 L 41.242188 44.875 L 42.988281 44.78125 L 50.960938 86.523438 L 68.46875 85.375 L 82.375 1.527344 Z M 64.023438 1.527344 "/>
</g>
</svg>
