<?xml version="1.0" encoding="UTF-8"?>
<svg xmlns="http://www.w3.org/2000/svg" xmlns:xlink="http://www.w3.org/1999/xlink" width="300px" height="79px" viewBox="0 0 301 79" version="1.1">
<g id="surface1">
<path style=" stroke:none;fill-rule:evenodd;fill:#777;fill-opacity:.7;" d="M 58.464844 32.9375 C 60.621094 34.394531 61.914062 36.828125 61.914062 39.433594 C 61.914062 42.039062 60.621094 44.476562 58.464844 45.933594 C 46.078125 54.285156 24.601562 68.777344 11.410156 77.675781 C 9.167969 79.191406 6.269531 79.34375 3.882812 78.070312 C 1.492188 76.796875 0 74.308594 0 71.601562 C 0 54.292969 0 24.757812 0 7.390625 C 0 4.660156 1.507812 2.148438 3.917969 0.867188 C 6.328125 -0.417969 9.25 -0.265625 11.511719 1.261719 C 24.710938 10.167969 46.113281 24.605469 58.464844 32.9375 Z M 58.464844 32.9375 "/>
<path style=" stroke:none;fill-rule:evenodd;fill:#777;fill-opacity:.7;" d="M 0 39.816406 C 4.488281 38.546875 9.347656 38.371094 14.203125 39.566406 C 21.617188 41.398438 23.824219 46.570312 29.9375 50.1875 C 35.449219 53.445312 41.984375 54.164062 48.148438 52.890625 L 11.410156 77.675781 C 9.167969 79.191406 6.269531 79.339844 3.882812 78.070312 C 1.492188 76.796875 0 74.308594 0 71.601562 Z M 0 39.816406 "/>
<path style=" stroke:none;fill-rule:evenodd;fill:#777;fill-opacity:.7;" d="M 0 61.925781 C 2.644531 60.917969 5.515625 60.367188 8.511719 60.367188 C 15.371094 60.367188 21.558594 63.253906 25.933594 67.878906 L 11.410156 77.675781 C 9.167969 79.191406 6.269531 79.339844 3.882812 78.070312 C 1.492188 76.796875 0 74.308594 0 71.601562 Z M 0 61.925781 "/>
<path style=" stroke:none;fill-rule:evenodd;fill:#777;fill-opacity:.7;" d="M 214.207031 19.320312 L 205.050781 47.539062 L 203.902344 51.074219 L 202.753906 47.539062 L 193.59375 19.320312 L 186.945312 19.320312 L 198.464844 54.8125 L 198.46875 54.820312 C 199.210938 57.191406 201.417969 58.816406 203.902344 58.820312 C 206.386719 58.816406 208.59375 57.191406 209.339844 54.820312 L 209.339844 54.8125 L 220.859375 19.320312 Z M 251.289062 19.320312 L 242.128906 47.539062 L 240.976562 51.074219 L 239.828125 47.539062 L 230.671875 19.320312 L 224.023438 19.320312 L 235.539062 54.8125 L 235.542969 54.820312 C 236.03125 56.378906 237.164062 57.640625 238.632812 58.308594 C 240.121094 58.988281 241.835938 58.988281 243.328125 58.308594 C 244.804688 57.636719 245.925781 56.371094 246.414062 54.820312 L 246.417969 54.8125 L 257.9375 19.320312 Z M 134.910156 19.359375 L 125.773438 47.503906 L 124.625 51.039062 L 123.476562 47.503906 L 114.339844 19.359375 L 107.691406 19.359375 L 98.554688 47.503906 L 97.40625 51.039062 L 96.257812 47.503906 L 87.121094 19.359375 L 80.472656 19.359375 L 91.972656 54.773438 L 91.972656 54.78125 C 92.71875 57.152344 94.929688 58.773438 97.414062 58.773438 C 98.21875 58.773438 99.019531 58.601562 99.753906 58.269531 C 101.230469 57.601562 102.355469 56.332031 102.84375 54.78125 L 102.84375 54.773438 L 111.015625 29.601562 L 119.1875 54.773438 L 119.191406 54.785156 C 119.9375 57.15625 122.144531 58.777344 124.625 58.78125 C 127.109375 58.78125 129.320312 57.15625 130.0625 54.78125 L 130.0625 54.773438 L 141.558594 19.359375 Z M 183.460938 39.070312 C 183.460938 28.25 174.664062 19.445312 163.855469 19.445312 C 153.042969 19.445312 144.246094 28.25 144.246094 39.070312 C 144.246094 49.890625 153.042969 58.695312 163.855469 58.695312 C 168.773438 58.699219 173.511719 56.84375 177.121094 53.503906 L 177.121094 58.695312 L 183.449219 58.695312 L 183.449219 39.605469 C 183.453125 39.425781 183.460938 39.246094 183.460938 39.070312 Z M 291.476562 47.316406 C 288.964844 50.5 285.125 52.363281 281.070312 52.363281 C 274.835938 52.363281 269.59375 48.042969 268.171875 42.238281 L 293.96875 42.238281 L 293.964844 42.25 L 300.417969 42.25 C 300.589844 41.199219 300.675781 40.136719 300.675781 39.070312 C 300.675781 28.25 291.878906 19.445312 281.070312 19.445312 C 270.261719 19.445312 261.464844 28.25 261.464844 39.070312 C 261.464844 49.890625 270.261719 58.695312 281.070312 58.695312 C 288.941406 58.695312 295.738281 54.027344 298.855469 47.316406 Z M 163.855469 52.363281 C 156.570312 52.355469 150.582031 46.359375 150.570312 39.070312 C 150.582031 31.78125 156.570312 25.785156 163.855469 25.777344 C 171.070312 25.777344 176.957031 31.570312 177.128906 38.753906 L 177.121094 38.753906 L 177.121094 39.609375 C 176.839844 46.6875 171 52.363281 163.855469 52.363281 Z M 281.070312 25.777344 C 287.304688 25.777344 292.546875 30.097656 293.96875 35.902344 L 268.171875 35.902344 C 269.59375 30.097656 274.839844 25.777344 281.070312 25.777344 Z M 281.070312 25.777344 "/>
</g>
</svg>
